<svg xmlns="http://www.w3.org/2000/svg" xmlns:xlink="http://www.w3.org/1999/xlink" width="500" zoomAndPan="magnify" viewBox="0 0 375 374.999991" height="500" preserveAspectRatio="xMidYMid meet" version="1.0"><defs><clipPath id="5519fa50fa"><path d="M 62.816406 52.707031 L 311.816406 52.707031 L 311.816406 321.957031 L 62.816406 321.957031 Z M 62.816406 52.707031 " clip-rule="nonzero"/></clipPath></defs><path fill="#e2d2ae" d="M 168.605469 169.390625 L 165.929688 169.390625 L 171.148438 194.554688 L 172.6875 194.554688 L 172.179688 184.316406 L 168.605469 169.390625 " fill-opacity="1" fill-rule="nonzero"/><path fill="#e2d2ae" d="M 170.933594 169.390625 L 171.5625 172.035156 L 171.433594 169.390625 Z M 170.933594 169.390625 " fill-opacity="1" fill-rule="nonzero"/><path fill="#e2d2ae" d="M 164.667969 117.441406 C 161.574219 117.691406 159.253906 120.414062 159.503906 123.523438 L 160.460938 135.203125 L 160.488281 135.203125 C 160.488281 134.691406 160.8125 134.226562 161.332031 134.101562 C 161.9375 133.960938 162.542969 134.332031 162.691406 134.933594 L 162.757812 135.203125 L 169.714844 135.203125 L 168.894531 118.871094 C 167.785156 117.875 166.277344 117.308594 164.667969 117.441406 " fill-opacity="1" fill-rule="nonzero"/><path fill="#e2d2ae" d="M 163.625 163.773438 C 164.222656 163.640625 164.832031 164.042969 164.957031 164.652344 L 165.003906 164.886719 L 167.535156 164.886719 L 161.511719 139.710938 L 160.824219 139.710938 L 162.835938 164.429688 C 162.980469 164.109375 163.25 163.851562 163.625 163.773438 " fill-opacity="1" fill-rule="nonzero"/><path fill="#e2d2ae" d="M 163.828125 139.710938 L 169.851562 164.886719 L 171.199219 164.886719 L 169.9375 139.710938 L 163.828125 139.710938 " fill-opacity="1" fill-rule="nonzero"/><path fill="#e2d2ae" d="M 165.660156 199.074219 L 166.296875 206.890625 C 166.34375 207.539062 166.550781 208.125 166.84375 208.65625 L 165.960938 199.074219 L 165.660156 199.074219 " fill-opacity="1" fill-rule="nonzero"/><path fill="#e2d2ae" d="M 167.796875 194.460938 L 167.804688 194.554688 L 168.835938 194.554688 L 163.628906 169.390625 L 163.238281 169.390625 L 165.292969 194.554688 L 165.554688 194.554688 C 165.554688 193.984375 165.980469 193.496094 166.570312 193.4375 C 167.164062 193.394531 167.738281 193.832031 167.796875 194.460938 " fill-opacity="1" fill-rule="nonzero"/><path fill="#e2d2ae" d="M 172.921875 199.074219 L 172.078125 199.074219 L 173.179688 204.410156 Z M 172.921875 199.074219 " fill-opacity="1" fill-rule="nonzero"/><path fill="#e2d2ae" d="M 170.835938 210.867188 C 171.300781 210.847656 171.738281 210.730469 172.15625 210.578125 L 169.773438 199.074219 L 168.226562 199.074219 L 169.300781 210.664062 C 169.785156 210.816406 170.296875 210.898438 170.835938 210.867188 " fill-opacity="1" fill-rule="nonzero"/><path fill="#e2d2ae" d="M 214.621094 135.203125 L 215.574219 123.523438 C 215.824219 120.414062 213.515625 117.691406 210.414062 117.441406 C 208.816406 117.316406 207.34375 117.855469 206.230469 118.832031 L 205.410156 135.203125 L 212.613281 135.203125 L 212.65625 135 C 212.773438 134.546875 213.238281 134.257812 213.6875 134.375 C 214.066406 134.46875 214.320312 134.816406 214.308594 135.203125 L 214.621094 135.203125 " fill-opacity="1" fill-rule="nonzero"/><g clip-path="url(#5519fa50fa)"><path fill="#e2d2ae" d="M 187.539062 52.671875 C 109.605469 52.671875 62.847656 72.308594 62.847656 153.253906 C 62.847656 177.65625 72.285156 204.191406 86.070312 229.3125 C 89.671875 235.894531 93.574219 242.394531 97.675781 248.714844 C 117.324219 279.039062 141.675781 305.757812 160.59375 321.957031 L 160.667969 317.777344 L 160.703125 316.457031 L 161.140625 293.597656 L 161.175781 292.035156 L 161.550781 272.460938 L 161.597656 269.875 L 161.949219 251.824219 L 161.992188 249.238281 L 162.425781 226.765625 L 162.425781 225.085938 C 155.574219 223.515625 150.457031 217.394531 150.457031 210.058594 L 149.496094 199.074219 L 144.097656 199.074219 C 143.5625 200.511719 142.507812 201.757812 141.125 202.664062 C 139.746094 203.578125 138.035156 204.148438 136.164062 204.246094 C 135.957031 204.277344 135.757812 204.277344 135.554688 204.277344 C 130.632812 204.277344 128.402344 204.519531 128.402344 196.832031 C 128.402344 189.109375 130.632812 189.363281 135.554688 189.363281 C 135.757812 189.363281 135.957031 189.363281 136.164062 189.382812 L 136.164062 189.390625 C 139.898438 189.574219 143.007812 191.6875 144.097656 194.554688 L 149.097656 194.554688 L 146.878906 169.390625 L 142.679688 169.390625 C 141.597656 172.25 138.53125 174.34375 134.832031 174.554688 L 134.820312 174.566406 C 134.621094 174.59375 134.417969 174.59375 134.214844 174.59375 L 133.371094 174.59375 C 129.042969 174.59375 127.066406 174.378906 127.066406 167.140625 L 127.066406 167.132812 C 127.066406 164.46875 127.332031 162.769531 127.890625 161.671875 C 128.9375 159.582031 131 159.679688 134.214844 159.679688 C 134.417969 159.679688 134.621094 159.679688 134.820312 159.703125 L 134.832031 159.710938 C 138.53125 159.921875 141.597656 162.027344 142.679688 164.886719 L 146.484375 164.886719 L 144.261719 139.710938 L 141.378906 139.710938 C 140.296875 142.554688 137.234375 144.671875 133.511719 144.882812 C 133.3125 144.90625 133.105469 144.90625 132.898438 144.90625 C 127.988281 144.90625 125.757812 145.152344 125.757812 137.460938 C 125.757812 129.746094 127.988281 130 132.898438 130 C 133.105469 130 133.3125 130 133.511719 130.023438 C 137.234375 130.230469 140.296875 132.34375 141.367188 135.203125 L 143.859375 135.203125 L 141.984375 113.863281 C 141.984375 109.234375 141.683594 102.5 150.199219 102.5 C 150.199219 102.5 153.585938 102.5 158.941406 102.5 C 164.089844 102.5 174.957031 90.414062 186.789062 89.433594 L 186.789062 89.335938 C 187.039062 89.335938 187.292969 89.371094 187.542969 89.382812 C 187.792969 89.371094 188.035156 89.335938 188.289062 89.335938 L 188.289062 89.433594 C 200.117188 90.414062 211 102.5 216.132812 102.5 C 221.488281 102.5 224.882812 102.5 224.882812 102.5 C 233.394531 102.5 233.101562 109.234375 233.101562 113.863281 L 231.222656 135.203125 L 233.691406 135.203125 C 234.777344 132.34375 237.851562 130.242188 241.550781 130.027344 L 241.554688 130.023438 C 241.761719 130 241.964844 130 242.164062 130 C 245.359375 130 247.417969 129.902344 248.46875 131.960938 C 249.035156 133.058594 249.320312 134.757812 249.320312 137.453125 L 249.320312 137.460938 C 249.320312 145.152344 247.082031 144.90625 242.164062 144.90625 C 241.964844 144.90625 241.761719 144.90625 241.554688 144.882812 L 241.550781 144.871094 C 237.851562 144.664062 234.777344 142.554688 233.703125 139.710938 L 230.816406 139.710938 L 228.597656 164.886719 L 232.398438 164.886719 C 233.480469 162.027344 236.550781 159.929688 240.25 159.710938 L 240.253906 159.703125 C 240.460938 159.679688 240.664062 159.679688 240.867188 159.679688 C 243.015625 159.679688 244.660156 159.632812 245.816406 160.230469 C 247.3125 160.984375 248.015625 162.796875 248.015625 167.132812 C 248.015625 170.992188 247.457031 172.847656 246.277344 173.753906 C 245.113281 174.652344 243.324219 174.59375 240.867188 174.59375 C 240.664062 174.59375 240.460938 174.59375 240.253906 174.566406 L 240.25 174.554688 C 236.550781 174.34375 233.480469 172.234375 232.398438 169.390625 L 228.199219 169.390625 L 225.976562 194.554688 L 230.980469 194.554688 C 232.070312 191.6875 235.179688 189.585938 238.90625 189.390625 L 238.90625 189.382812 C 239.105469 189.363281 239.308594 189.363281 239.511719 189.363281 C 244.4375 189.363281 246.667969 189.109375 246.667969 196.832031 C 246.667969 204.519531 244.4375 204.277344 239.511719 204.277344 C 239.308594 204.277344 239.105469 204.277344 238.90625 204.246094 C 235.179688 204.054688 232.070312 201.941406 230.980469 199.074219 L 225.582031 199.074219 L 224.617188 210.058594 C 224.617188 217.382812 219.5 223.515625 212.652344 225.085938 L 212.652344 226.863281 L 214.484375 321.957031 C 214.371094 322.054688 214.261719 322.140625 214.15625 322.234375 L 214.160156 322.234375 C 214.269531 322.140625 214.378906 322.054688 214.488281 321.957031 C 233.410156 305.75 257.761719 279.03125 277.402344 248.714844 C 281.503906 242.394531 285.402344 235.894531 289.003906 229.3125 C 302.789062 204.191406 312.230469 177.65625 312.230469 153.253906 C 312.230469 72.308594 265.472656 52.671875 187.539062 52.671875 " fill-opacity="1" fill-rule="nonzero"/></g><path fill="#e2d2ae" d="M 203.5 173.320312 L 204.4375 169.390625 L 203.699219 169.390625 Z M 203.5 173.320312 " fill-opacity="1" fill-rule="nonzero"/><path fill="#e2d2ae" d="M 203.921875 164.886719 L 205.515625 164.886719 L 211.539062 139.710938 L 205.1875 139.710938 L 203.921875 164.886719 " fill-opacity="1" fill-rule="nonzero"/><path fill="#e2d2ae" d="M 201.773438 207.789062 C 202.339844 205.027344 202.957031 202.085938 203.574219 199.074219 L 202.207031 199.074219 L 201.773438 207.789062 " fill-opacity="1" fill-rule="nonzero"/><path fill="#e2d2ae" d="M 202.433594 194.554688 L 204.511719 194.554688 C 206.539062 184.738281 208.570312 174.941406 209.714844 169.390625 L 206.183594 169.390625 L 203.039062 182.527344 L 202.433594 194.554688 " fill-opacity="1" fill-rule="nonzero"/><path fill="#e2d2ae" d="M 209.425781 199.074219 L 208.265625 199.074219 L 207.265625 209.835938 C 208.113281 209.113281 208.683594 208.082031 208.777344 206.890625 L 209.425781 199.074219 " fill-opacity="1" fill-rule="nonzero"/><path fill="#e2d2ae" d="M 214.253906 139.710938 L 213.273438 139.710938 L 207.253906 164.886719 L 210.652344 164.886719 L 210.679688 164.765625 C 210.738281 164.457031 211.046875 164.277344 211.34375 164.324219 C 211.609375 164.382812 211.78125 164.625 211.78125 164.886719 L 212.203125 164.886719 L 214.253906 139.710938 " fill-opacity="1" fill-rule="nonzero"/><path fill="#e2d2ae" d="M 202.398438 210.335938 C 202.949219 210.636719 203.574219 210.839844 204.242188 210.867188 C 205.117188 210.917969 205.949219 210.695312 206.65625 210.277344 L 207.707031 199.074219 L 204.726562 199.074219 L 202.398438 210.335938 " fill-opacity="1" fill-rule="nonzero"/><path fill="#e2d2ae" d="M 211.839844 169.390625 L 210.875 169.390625 L 205.664062 194.554688 L 208.121094 194.554688 L 208.136719 194.535156 C 208.140625 194.394531 208.265625 194.273438 208.410156 194.273438 L 208.433594 194.289062 C 208.585938 194.292969 208.683594 194.417969 208.683594 194.554688 L 209.78125 194.554688 L 211.839844 169.390625 " fill-opacity="1" fill-rule="nonzero"/></svg>